<svg width="849" height="645" viewBox="0 0 849 645" fill="none" xmlns="http://www.w3.org/2000/svg">
<rect width="849" height="645" fill="#FFFAF7"/>
<path d="M358.5 439V446.5L278 443L271.5 439L262 429L259.5 412L264.5 380L275 352L278 344H284.5L294 346.5L288 367.5H284.5L278 370.5L271.5 402V414.5L275 423.5L284.5 429H291L297.5 423.5L301.5 402L308 363.5H325.5V376.5L313.5 383.5V401L320 407V421.5V422.5V431" stroke="black" stroke-opacity="0.9" stroke-width="2"/>
<path d="M321 422V430H358.5V439.5" stroke="black" stroke-opacity="0.9" stroke-width="2"/>
<path d="M455.5 448L471.5 454.5L485 464" stroke="black" stroke-opacity="0.9" stroke-width="2"/>
<path d="M493 469L516.5 486" stroke="black" stroke-opacity="0.9" stroke-width="2"/>
<path d="M525.5 491.5L540.5 513L536.5 515.5" stroke="black" stroke-opacity="0.9" stroke-width="2"/>
<path d="M456 449L471.5 455.5L484 464.5L482 467L468.5 458.5L454.5 452L456 449Z" fill="#C6EAB5"/>
<path d="M493 470L503.5 477.5L515.5 486.5L513.5 489.5L490.5 472.5L493 470Z" fill="#C6EAB5"/>
<path d="M525 492.5L539.5 513L536.5 514.5L522 494.5L525 492.5Z" fill="#C6EAB5"/>
<path d="M373.5 246L407 281.5L427 296.5L490.5 340L514 348.5L520.5 352.5L554.5 367L597 385L633.5 409.5L643 417L657.5 437.5L689.5 544V555.5L648 564.5L630.5 510.5L601 461.5L579 443.5L547 410.5L509 390.5L488 381.5L456.5 368L424.5 361.5L379 353L340 346L336 345.5V343H340V337.5V333.5L336.5 325L330.5 318L318.5 309L373.5 246Z" fill="#D5DBCD"/>
<path d="M690 355L721.5 393.5L734.5 432.5L728 448L750 524.5L741 528L723 514.5L717 492.5H709.5L701 463L693.5 453L679.5 408L670 398.5L656.5 394H643L690 355Z" fill="#D9D9D9"/>
<path d="M301 445L359.5 447.5L362.5 447L366.5 448V478H335H301V451L300 447.5L301 445Z" fill="#D9D9D9"/>
<path d="M730.91 78L801.491 212.25L735.991 245.5L660.329 212.25L658.41 114.5L730.91 78Z" fill="#C6EAB5"/>
<rect x="175.685" y="34.9257" width="38.3238" height="40.0548" transform="rotate(31.1317 175.685 34.9257)" fill="#807E7F" stroke="black"/>
<rect x="260.754" y="258.698" width="32.7684" height="73.4496" transform="rotate(35.8873 260.754 258.698)" fill="#807E7F" stroke="black"/>
<rect x="192.954" y="362.698" width="30.6016" height="68.6725" transform="rotate(35.8873 192.954 362.698)" fill="#807E7F" stroke="black"/>
<rect x="228.267" y="385.561" width="30.6016" height="68.6725" transform="rotate(34.8198 228.267 385.561)" fill="#807E7F" stroke="black"/>
<rect x="461.24" y="385.402" width="24.359" height="54.9095" transform="rotate(26.3202 461.24 385.402)" fill="#807E7F" stroke="black"/>
<rect x="506.247" y="403.683" width="24.359" height="54.9095" transform="rotate(30.1308 506.247 403.683)" fill="#807E7F" stroke="black"/>
<rect x="550.253" y="435.031" width="24.359" height="54.9095" transform="rotate(42.0875 550.253 435.031)" fill="#807E7F" stroke="black"/>
<rect x="585.83" y="474.691" width="24.359" height="54.9095" transform="rotate(57.168 585.83 474.691)" fill="#807E7F" stroke="black"/>
<rect x="458.269" y="503.459" width="26.0671" height="58.6753" transform="rotate(-43.4999 458.269 503.459)" fill="#807E7F" stroke="black"/>
<rect x="430.128" y="458.666" width="28.4999" height="53.0209" transform="rotate(92.3096 430.128 458.666)" fill="#807E7F" stroke="black"/>
<rect x="689.705" y="158.696" width="33.0112" height="54.9095" transform="rotate(-49.205 689.705 158.696)" fill="#807E7F" stroke="black"/>
<path d="M410.421 380.131L430.669 393.39L428.814 415.556L406.617 425.606L389.534 412.293L391.392 390.082L410.421 380.131Z" fill="#4762A9" stroke="black"/>
<path d="M376 422V401H357H343L338 390.5L343 380H357V364H325.5V376.5L314 383.5V401L320.5 407V422H376Z" fill="#807E7F" stroke="black"/>
<path d="M407 280.5L373.5 244.5L310.5 309.5C306.667 315.667 299 328.5 299 330.5L317.5 337.5V342L287.5 334.5L347 234L350.5 228.5L357.5 225.5H365.5L373.5 228.5L413 275.5L407 280.5Z" fill="#C6EAB5"/>
<path d="M335.5 346V342H339.5V334.5L335.5 325L330 318L317.5 309.5L373.5 244.5M373.5 244.5L407 280.5L413 275.5L373.5 228.5L365.5 225.5H357.5L350.5 228.5L347 234L287.5 334.5L317.5 342V337.5L299 330.5C299 328.5 306.667 315.667 310.5 309.5L373.5 244.5Z" stroke="black" stroke-opacity="0.9" stroke-width="2"/>
<path d="M515 343L425 286.5L422 291.5L492 340L513.5 347.5L515 343Z" fill="#C6EAB5" stroke="black" stroke-opacity="0.9" stroke-width="2"/>
<path d="M521.5 352L523 347L569 364L602.5 380L638 405L633.5 408.5L597.5 384L521.5 352Z" fill="#C6EAB5" stroke="black" stroke-opacity="0.9" stroke-width="2"/>
<path d="M661 429L649.5 412.5L644 417L658 437L690 542L694.5 539.5L661 429Z" fill="#C6EAB5" stroke="black" stroke-opacity="0.9" stroke-width="2"/>
<path d="M653 402L657 395L669.5 399L678.5 408.5L692 452H681L664.5 413L653 402Z" fill="#C6EAB5" stroke="black" stroke-opacity="0.9" stroke-width="2"/>
<ellipse cx="719" cy="549.5" rx="16" ry="16.5" fill="#C6EAB5"/>
<path d="M734 549.5C734 558.09 727.255 565 719 565C710.745 565 704 558.09 704 549.5C704 540.91 710.745 534 719 534C727.255 534 734 540.91 734 549.5Z" stroke="black" stroke-opacity="0.9" stroke-width="2"/>
<path d="M205.5 59.5L354.5 150.5L375 168L395 178L399.5 198.5L428 242L457.5 272.5L625.5 168H636.5L674.5 173M674.5 178L636.5 173L625.5 178L465.5 281L630 387.5L643 393L690 353.5L722 393L735.5 432L729 447.5L751 525L741 529L722 514.5L716.5 493.5H709L700 464L687.5 467.5L700 509.5L729 525L741 540L745.5 554L741 566.5L735.5 573L650.5 588L636.5 581V592.5L592 602.5L572 540L619 529L609 500.5L601 484.5L594.5 489" stroke="black" stroke-opacity="0.9" stroke-width="2"/>
<path d="M599.5 461.5L629.5 511L647.5 565.5L689.5 556M578 443.5L546 411L531.5 402.5L505.5 389.5M487.5 382.5L455.5 368.5L420.5 361.5L397 357.5M379 353.5L356.5 349.5L334.5 345.5" stroke="black" stroke-opacity="0.9" stroke-width="2"/>
<path d="M191 83L334 169.5L341.5 184L347.5 204.5V217.5L341.5 228L263 353L257 372.5L253 376.5L246 372.5L100.5 263.5L37 339L140 421L188 349L248.5 387.5L253 392.5V401V429.5L257 435.5L263 442L272.5 449L279.5 452H300V479H367V449H415L423 452L474.5 474L483 479L504 501L515.5 511.5L528 531L546.5 521" stroke="black" stroke-opacity="0.9" stroke-width="2"/>
<path d="M537 516.5L521 494.5L526 490.5M517.5 485.5L513.5 490.5L489.5 472.5L493.5 468M486 463.5L482 468L467.5 459L453 452.5L456 447M447.5 443.5L445 450L430.5 447L410 440.5V435.5M401.5 440.5V435.5" stroke="black" stroke-opacity="0.9" stroke-width="2"/>
<path d="M401.5 440.5H390L378.5 442L368 443.5V439.5" stroke="black" stroke-opacity="0.9" stroke-width="2"/>
<path d="M448 444.5L408.5 430.5L368 435.5V440.5" stroke="black" stroke-opacity="0.9" stroke-width="2"/>
<path d="M100.5 264.5L200 339L196 348H187.5L139.5 420L37.5 339L100.5 264.5Z" fill="#C6EAB5"/>
<path d="M278.5 345H284.5L293 347L287.5 366.5H284L277 370L270.5 402V415L274.5 424.5L284.5 430L357.5 431V445.5L278 442L272 438.5L263 428.5L260.5 412.5L265.5 380L278.5 345Z" fill="#C6EAB5"/>
<path d="M298.5 424L304 393L306 381.5L309 364.5H324.5V376L312.5 383V401L307.5 396L319 407.5V430.5L291 430L298.5 424Z" fill="#C6EAB5"/>
<path d="M396 433L394 436L392.5 439.5L369 442.5V436.5L396 433Z" fill="#C6EAB5"/>
<path d="M414 433.5L427.5 438L446 445L444.5 449L430.5 446L417.5 442L416.5 438L414 433.5Z" fill="#C6EAB5"/>
<path d="M621 529.5L631.5 554L635.5 579.5V592L592.5 601.5L573 540.5L621 529.5Z" fill="#C6EAB5"/>
<path d="M600.5 198L626.5 206.5L604.5 221.5L657.5 252L668 274.5L722.5 269.5L745 287.5L643 344L626.5 318L489.24 269.5L600.5 198Z" fill="#2B80B7" fill-opacity="0.6"/>
<path d="M551.5 174L543.696 195.25L524.5 196L500 221.5V196L497 181L551.5 174Z" fill="#80B1D1"/>
</svg>
