<svg width="849" height="645" viewBox="0 0 849 645" fill="none" xmlns="http://www.w3.org/2000/svg">
<rect width="849" height="645" fill="white"/>
<rect x="175.685" y="34.9257" width="38.3238" height="40.0548" transform="rotate(31.1317 175.685 34.9257)" fill="#807E7F" stroke="black"/>
<rect x="260.754" y="258.698" width="32.7684" height="73.4496" transform="rotate(35.8873 260.754 258.698)" fill="#807E7F" stroke="black"/>
<rect x="192.954" y="362.698" width="30.6016" height="68.6725" transform="rotate(35.8873 192.954 362.698)" fill="#807E7F" stroke="black"/>
<rect x="228.267" y="385.561" width="30.6016" height="68.6725" transform="rotate(34.8198 228.267 385.561)" fill="#807E7F" stroke="black"/>
<rect x="461.24" y="385.402" width="24.359" height="54.9095" transform="rotate(26.3202 461.24 385.402)" fill="#807E7F" stroke="black"/>
<rect x="506.247" y="403.683" width="24.359" height="54.9095" transform="rotate(30.1308 506.247 403.683)" fill="#807E7F" stroke="black"/>
<rect x="550.253" y="435.031" width="24.359" height="54.9095" transform="rotate(42.0875 550.253 435.031)" fill="#807E7F" stroke="black"/>
<rect x="585.83" y="474.691" width="24.359" height="54.9095" transform="rotate(57.168 585.83 474.691)" fill="#807E7F" stroke="black"/>
<rect x="458.269" y="503.459" width="26.0671" height="58.6753" transform="rotate(-43.4999 458.269 503.459)" fill="#807E7F" stroke="black"/>
<rect x="430.128" y="458.666" width="28.4999" height="53.0209" transform="rotate(92.3096 430.128 458.666)" fill="#807E7F" stroke="black"/>
<rect x="689.705" y="158.696" width="33.0112" height="54.9095" transform="rotate(-49.205 689.705 158.696)" fill="#807E7F" stroke="black"/>
<path d="M410.421 380.131L430.669 393.39L428.814 415.556L406.617 425.606L389.534 412.293L391.392 390.082L410.421 380.131Z" fill="#4762A9" stroke="black"/>
<path d="M376 422V401H357H343L338 390.5L343 380H357V364H325.5V376.5L314 383.5V401L320.5 407V422H376Z" fill="#807E7F" stroke="black"/>
<path d="M206.5 60L354.5 150.5L375 168L395 178L399.5 198.5L428 242L457.5 272.5L625.5 168H636.5L674.5 173M674.5 178L636.5 173L625.5 178L465.5 281L630 387.5L643 393L690 353.5L722 393L735.5 432L729 447.5L751 525L741 529L722 514.5L716.5 493.5H709L700 464L687.5 467.5L700 509.5L729 525L741 540L745.5 554L741 566.5L735.5 573L650.5 588L636.5 581V592.5L592 602.5L572 540L619 529L609 500.5L601 484.5L594.5 489" stroke="black" stroke-opacity="0.9" stroke-width="2"/>
<path d="M599.5 461.5L629.5 511L647.5 565.5L689.5 556M578 443.5L546 411L531.5 402.5L505.5 389.5M487.5 382.5L455.5 368.5L420.5 361.5L397 357.5M379 353.5L356.5 349.5L334.5 345.5" stroke="black" stroke-opacity="0.9" stroke-width="2"/>
<path d="M335.5 346V342H339.5V334.5L335.5 325L330 318L317.5 309.5L373.5 244.5M373.5 244.5L407 280.5L413 275.5L373.5 228.5L365.5 225.5H357.5L350.5 228.5L347 234L287.5 334.5L317.5 342V337.5L299 330.5C299 328.5 306.667 315.667 310.5 309.5L373.5 244.5Z" stroke="black" stroke-opacity="0.9" stroke-width="2"/>
<path d="M193.5 87L334 169.5L341.5 184L347.5 204.5V217.5L341.5 228L263 353L257 372.5L253 376.5L246 372.5L100.5 263.5L37 339L140 421L188 349L248.5 387.5L253 392.5V401V429.5L257 435.5L263 442L272.5 449L279.5 452H300V479H367V449H415L423 452L474.5 474L483 479L504 501L515.5 511.5L528 531L546.5 521" stroke="black" stroke-opacity="0.9" stroke-width="2"/>
<path d="M358.5 363.5H308L301.5 402L297.5 423.5L291 429H284.5L275 423.5L271.5 414.5V402L278 370.5L284.5 367.5H288L294 346.5L284.5 344H278L275 352L264.5 380L259.5 412L262 429L271.5 439L278 443L358.5 446.5V439" stroke="black" stroke-opacity="0.9" stroke-width="2"/>
<path d="M515 343L425 286.5L422 291.5L492 340L513.5 347.5L515 343Z" stroke="black" stroke-opacity="0.9" stroke-width="2"/>
<path d="M521.5 352L523 347L569 364L602.5 380L638 405L633.5 408.5L597.5 384L521.5 352Z" stroke="black" stroke-opacity="0.9" stroke-width="2"/>
<path d="M661 429L649.5 412.5L644 417L658 437L690 542L694.5 539.5L661 429Z" stroke="black" stroke-opacity="0.9" stroke-width="2"/>
<path d="M653 402L657 395L669.5 399L678.5 408.5L692 452H681L664.5 413L653 402Z" stroke="black" stroke-opacity="0.9" stroke-width="2"/>
<path d="M537 516.5L521 494.5L526 490.5M517.5 485.5L513.5 490.5L489.5 472.5L493.5 468M486 463.5L482 468L467.5 459L453 452.5L456 447M447.5 443.5L445 450L430.5 447L410 440.5V435.5M401.5 440.5V435.5" stroke="black" stroke-opacity="0.9" stroke-width="2"/>
<path d="M401.5 440.5H390L378.5 442L368 443.5V439.5" stroke="black" stroke-opacity="0.9" stroke-width="2"/>
<circle cx="197.5" cy="70.5" r="12" fill="#FFB800" stroke="black"/>
<circle cx="373.5" cy="189.5" r="12" fill="#FF0000" stroke="black"/>
<circle cx="268.5" cy="325.5" r="12" fill="#FFB800" stroke="black"/>
<circle cx="447.5" cy="282.5" r="12" fill="#FF0000" stroke="black"/>
<circle cx="109.5" cy="335.5" r="12" fill="#FE4602" stroke="black"/>
<path d="M202.862 362.5C202.862 369.127 197.49 374.5 190.862 374.5C184.235 374.5 178.862 369.127 178.862 362.5C178.862 355.873 184.235 350.5 190.862 350.5C197.49 350.5 202.862 355.873 202.862 362.5Z" fill="#FFB800" stroke="black"/>
<path d="M242.334 386C242.334 392.627 236.962 398 230.334 398C223.707 398 218.334 392.627 218.334 386C218.334 379.373 223.707 374 230.334 374C236.962 374 242.334 379.373 242.334 386Z" fill="#0EB9A9" stroke="black"/>
<circle cx="288.5" cy="385.5" r="12" fill="#127909" stroke="black"/>
<path d="M264.395 439.5C264.395 446.127 259.022 451.5 252.395 451.5C245.767 451.5 240.395 446.127 240.395 439.5C240.395 432.873 245.767 427.5 252.395 427.5C259.022 427.5 264.395 432.873 264.395 439.5Z" fill="#127909" stroke="black"/>
<path d="M365.5 400.5C365.5 407.127 360.127 412.5 353.5 412.5C346.873 412.5 341.5 407.127 341.5 400.5C341.5 393.873 346.873 388.5 353.5 388.5C360.127 388.5 365.5 393.873 365.5 400.5Z" fill="#F90573" stroke="black"/>
<path d="M419.039 396.5C419.039 403.127 413.667 408.5 407.039 408.5C400.412 408.5 395.039 403.127 395.039 396.5C395.039 389.873 400.412 384.5 407.039 384.5C413.667 384.5 419.039 389.873 419.039 396.5Z" fill="#8A04FF" stroke="black"/>
<circle cx="455.5" cy="401.5" r="12" fill="#FFB800" stroke="black"/>
<circle cx="502.5" cy="415.5" r="12" fill="#FFB800" stroke="black"/>
<circle cx="540.5" cy="445.5" r="12" fill="#FFB800" stroke="black"/>
<circle cx="570.5" cy="482.5" r="12" fill="#FFB800" stroke="black"/>
<path d="M704.5 165.5C704.5 172.127 699.127 177.5 692.5 177.5C685.873 177.5 680.5 172.127 680.5 165.5C680.5 158.873 685.873 153.5 692.5 153.5C699.127 153.5 704.5 158.873 704.5 165.5Z" fill="#05D5BC" stroke="black"/>
<path d="M710.5 421.5C710.5 428.127 705.127 433.5 698.5 433.5C691.873 433.5 686.5 428.127 686.5 421.5C686.5 414.873 691.873 409.5 698.5 409.5C705.127 409.5 710.5 414.873 710.5 421.5Z" fill="#FE4602" stroke="black"/>
<circle cx="606.5" cy="563.5" r="12" fill="#FE4602" stroke="black"/>
<circle cx="338.5" cy="460.5" r="12" fill="#127909" stroke="black"/>
<path d="M416.772 442C416.772 448.627 411.399 454 404.772 454C398.144 454 392.772 448.627 392.772 442C392.772 435.373 398.144 430 404.772 430C411.399 430 416.772 435.373 416.772 442Z" fill="#05D5BC" stroke="black"/>
<path d="M513.5 489C513.5 495.627 508.127 501 501.5 501C494.873 501 489.5 495.627 489.5 489C489.5 482.373 494.873 477 501.5 477C508.127 477 513.5 482.373 513.5 489Z" fill="#0EB9A9" stroke="black"/>
<circle cx="388.5" cy="341.5" r="12" fill="#FF0000" stroke="black"/>
<circle cx="500.5" cy="371.5" r="12" fill="#FF0000" stroke="black"/>
<circle cx="591.5" cy="440.5" r="12" fill="#FF0000" stroke="black"/>
<path d="M447.933 287.119C447.297 287.119 446.73 287.01 446.233 286.791C445.739 286.57 445.348 286.266 445.061 285.879C444.777 285.49 444.631 285.041 444.622 284.533H446.48C446.491 284.746 446.561 284.933 446.689 285.095C446.82 285.254 446.993 285.378 447.209 285.466C447.425 285.554 447.668 285.598 447.938 285.598C448.219 285.598 448.467 285.548 448.683 285.449C448.899 285.349 449.068 285.212 449.19 285.036C449.313 284.859 449.374 284.656 449.374 284.426C449.374 284.193 449.308 283.987 449.178 283.808C449.05 283.626 448.865 283.484 448.624 283.382C448.385 283.28 448.101 283.229 447.771 283.229H446.957V281.874H447.771C448.05 281.874 448.295 281.825 448.509 281.729C448.724 281.632 448.892 281.499 449.011 281.328C449.131 281.155 449.19 280.953 449.19 280.723C449.19 280.504 449.138 280.312 449.033 280.148C448.93 279.98 448.786 279.849 448.598 279.756C448.413 279.662 448.197 279.615 447.95 279.615C447.7 279.615 447.472 279.661 447.264 279.751C447.057 279.839 446.891 279.966 446.766 280.131C446.641 280.295 446.574 280.489 446.565 280.71H444.797C444.805 280.207 444.949 279.764 445.227 279.381C445.506 278.997 445.881 278.697 446.352 278.482C446.827 278.263 447.362 278.153 447.959 278.153C448.561 278.153 449.088 278.263 449.54 278.482C449.991 278.7 450.342 278.996 450.592 279.368C450.845 279.737 450.97 280.152 450.967 280.612C450.97 281.101 450.818 281.509 450.511 281.835C450.207 282.162 449.811 282.369 449.322 282.457V282.526C449.964 282.608 450.453 282.831 450.788 283.195C451.126 283.555 451.294 284.007 451.291 284.55C451.294 285.047 451.151 285.489 450.861 285.875C450.574 286.261 450.178 286.565 449.672 286.787C449.166 287.009 448.587 287.119 447.933 287.119Z" fill="black"/>
<path d="M688.575 168.466V167.013L692.219 161.273H693.472V163.284H692.73L690.433 166.919V166.987H695.611V168.466H688.575ZM692.764 170V168.023L692.798 167.379V161.273H694.528V170H692.764Z" fill="black"/>
<path d="M370.707 194V192.67L373.814 189.794C374.078 189.538 374.3 189.308 374.479 189.104C374.661 188.899 374.798 188.699 374.892 188.503C374.986 188.304 375.033 188.089 375.033 187.859C375.033 187.604 374.974 187.384 374.858 187.199C374.741 187.011 374.582 186.868 374.381 186.768C374.179 186.666 373.95 186.615 373.695 186.615C373.428 186.615 373.195 186.669 372.996 186.777C372.797 186.885 372.643 187.04 372.536 187.241C372.428 187.443 372.374 187.683 372.374 187.962H370.622C370.622 187.391 370.751 186.895 371.01 186.474C371.268 186.054 371.631 185.729 372.097 185.499C372.563 185.268 373.099 185.153 373.707 185.153C374.332 185.153 374.876 185.264 375.339 185.486C375.805 185.705 376.168 186.009 376.426 186.398C376.685 186.787 376.814 187.233 376.814 187.736C376.814 188.065 376.749 188.391 376.618 188.712C376.49 189.033 376.261 189.389 375.932 189.781C375.602 190.17 375.138 190.638 374.538 191.183L373.264 192.432V192.491H376.929V194H370.707Z" fill="black"/>
<path d="M198.504 66.2727V75H196.659V68.0241H196.608L194.609 69.277V67.6406L196.77 66.2727H198.504Z" fill="black"/>
<path d="M697.895 426.119C697.293 426.119 696.756 426.009 696.284 425.787C695.815 425.565 695.443 425.26 695.168 424.871C694.892 424.482 694.749 424.036 694.737 423.533H696.527C696.547 423.871 696.689 424.145 696.953 424.355C697.217 424.565 697.531 424.67 697.895 424.67C698.185 424.67 698.44 424.607 698.662 424.479C698.886 424.348 699.061 424.168 699.186 423.938C699.314 423.705 699.378 423.437 699.378 423.136C699.378 422.83 699.313 422.56 699.182 422.327C699.054 422.094 698.876 421.912 698.649 421.781C698.422 421.651 698.162 421.584 697.869 421.581C697.614 421.581 697.365 421.634 697.124 421.739C696.885 421.844 696.699 421.987 696.565 422.169L694.925 421.875L695.338 417.273H700.673V418.781H696.859L696.634 420.967H696.685C696.838 420.751 697.07 420.572 697.379 420.43C697.689 420.288 698.036 420.217 698.419 420.217C698.945 420.217 699.413 420.341 699.825 420.588C700.237 420.835 700.562 421.175 700.801 421.607C701.04 422.036 701.158 422.53 701.155 423.089C701.158 423.678 701.021 424.2 700.746 424.658C700.473 425.112 700.091 425.47 699.599 425.732C699.111 425.99 698.543 426.119 697.895 426.119Z" fill="black"/>
<path d="M606.057 568.119C605.608 568.116 605.175 568.041 604.757 567.893C604.342 567.746 603.97 567.506 603.641 567.173C603.311 566.841 603.05 566.401 602.857 565.852C602.666 565.304 602.571 564.631 602.571 563.832C602.574 563.099 602.658 562.445 602.822 561.868C602.99 561.288 603.229 560.797 603.538 560.393C603.851 559.99 604.224 559.683 604.659 559.473C605.094 559.26 605.581 559.153 606.121 559.153C606.703 559.153 607.217 559.267 607.663 559.494C608.109 559.719 608.467 560.024 608.737 560.411C609.01 560.797 609.175 561.23 609.232 561.71H607.412C607.341 561.406 607.192 561.168 606.964 560.994C606.737 560.821 606.456 560.734 606.121 560.734C605.553 560.734 605.121 560.982 604.825 561.476C604.533 561.97 604.384 562.642 604.378 563.491H604.438C604.568 563.233 604.744 563.013 604.966 562.831C605.19 562.646 605.445 562.506 605.729 562.409C606.016 562.31 606.318 562.26 606.636 562.26C607.153 562.26 607.614 562.382 608.017 562.626C608.42 562.868 608.739 563.2 608.972 563.624C609.205 564.047 609.321 564.531 609.321 565.077C609.321 565.668 609.183 566.193 608.908 566.653C608.635 567.114 608.253 567.474 607.761 567.736C607.273 567.994 606.705 568.122 606.057 568.119ZM606.048 566.67C606.332 566.67 606.587 566.602 606.811 566.466C607.036 566.33 607.212 566.145 607.339 565.912C607.467 565.679 607.531 565.418 607.531 565.128C607.531 564.838 607.467 564.578 607.339 564.348C607.214 564.118 607.041 563.935 606.82 563.798C606.598 563.662 606.345 563.594 606.061 563.594C605.848 563.594 605.651 563.634 605.469 563.713C605.29 563.793 605.132 563.903 604.996 564.045C604.862 564.187 604.757 564.352 604.68 564.54C604.604 564.724 604.565 564.922 604.565 565.132C604.565 565.413 604.629 565.67 604.757 565.903C604.888 566.136 605.064 566.322 605.286 566.462C605.51 566.601 605.764 566.67 606.048 566.67Z" fill="black"/>
<path d="M568.053 487L571.67 479.841V479.781H567.456V478.273H573.58V479.803L569.957 487H568.053Z" fill="black"/>
<path d="M540.963 450.119C540.307 450.119 539.723 450.013 539.212 449.8C538.703 449.584 538.304 449.29 538.014 448.918C537.724 448.545 537.58 448.124 537.58 447.652C537.58 447.288 537.662 446.955 537.827 446.651C537.994 446.344 538.222 446.089 538.509 445.888C538.795 445.683 539.116 445.553 539.472 445.496V445.436C539.006 445.342 538.628 445.116 538.338 444.759C538.048 444.398 537.903 443.979 537.903 443.501C537.903 443.05 538.036 442.648 538.3 442.295C538.564 441.94 538.926 441.662 539.386 441.46C539.849 441.256 540.375 441.153 540.963 441.153C541.551 441.153 542.075 441.256 542.536 441.46C542.999 441.665 543.362 441.945 543.626 442.3C543.891 442.652 544.024 443.053 544.027 443.501C544.024 443.982 543.876 444.401 543.584 444.759C543.291 445.116 542.916 445.342 542.459 445.436V445.496C542.808 445.553 543.125 445.683 543.409 445.888C543.696 446.089 543.923 446.344 544.091 446.651C544.261 446.955 544.348 447.288 544.351 447.652C544.348 448.124 544.202 448.545 543.912 448.918C543.622 449.29 543.222 449.584 542.71 449.8C542.202 450.013 541.619 450.119 540.963 450.119ZM540.963 448.764C541.256 448.764 541.511 448.712 541.73 448.607C541.949 448.499 542.119 448.351 542.241 448.163C542.366 447.973 542.429 447.754 542.429 447.507C542.429 447.254 542.365 447.031 542.237 446.838C542.109 446.642 541.936 446.489 541.717 446.378C541.499 446.264 541.247 446.207 540.963 446.207C540.682 446.207 540.43 446.264 540.209 446.378C539.987 446.489 539.813 446.642 539.685 446.838C539.56 447.031 539.497 447.254 539.497 447.507C539.497 447.754 539.558 447.973 539.68 448.163C539.803 448.351 539.974 448.499 540.196 448.607C540.418 448.712 540.673 448.764 540.963 448.764ZM540.963 444.865C541.207 444.865 541.425 444.815 541.615 444.716C541.805 444.616 541.955 444.479 542.062 444.303C542.17 444.126 542.224 443.923 542.224 443.693C542.224 443.466 542.17 443.267 542.062 443.097C541.955 442.923 541.807 442.788 541.619 442.692C541.432 442.592 541.213 442.543 540.963 442.543C540.716 442.543 540.497 442.592 540.307 442.692C540.116 442.788 539.967 442.923 539.859 443.097C539.754 443.267 539.702 443.466 539.702 443.693C539.702 443.923 539.756 444.126 539.864 444.303C539.972 444.479 540.121 444.616 540.311 444.716C540.501 444.815 540.719 444.865 540.963 444.865Z" fill="black"/>
<path d="M502.865 411.153C503.314 411.153 503.746 411.229 504.161 411.379C504.578 411.53 504.95 411.77 505.277 412.099C505.607 412.429 505.866 412.866 506.057 413.412C506.25 413.955 506.348 414.621 506.351 415.411C506.351 416.152 506.267 416.814 506.099 417.396C505.935 417.976 505.697 418.469 505.388 418.875C505.078 419.281 504.705 419.591 504.267 419.804C503.83 420.014 503.341 420.119 502.801 420.119C502.219 420.119 501.705 420.007 501.259 419.783C500.813 419.555 500.453 419.247 500.18 418.858C499.911 418.466 499.747 418.026 499.69 417.537H501.51C501.581 417.855 501.73 418.102 501.957 418.278C502.185 418.452 502.466 418.538 502.801 418.538C503.369 418.538 503.801 418.291 504.097 417.797C504.392 417.3 504.541 416.619 504.544 415.756H504.484C504.354 416.011 504.178 416.232 503.956 416.416C503.734 416.598 503.48 416.739 503.193 416.838C502.909 416.938 502.607 416.987 502.286 416.987C501.771 416.987 501.312 416.866 500.909 416.625C500.506 416.384 500.188 416.051 499.955 415.628C499.722 415.205 499.605 414.722 499.605 414.179C499.602 413.594 499.737 413.072 500.01 412.615C500.283 412.158 500.663 411.8 501.152 411.541C501.643 411.28 502.214 411.151 502.865 411.153ZM502.878 412.602C502.591 412.602 502.335 412.67 502.111 412.807C501.889 412.943 501.713 413.126 501.582 413.357C501.455 413.587 501.392 413.844 501.395 414.128C501.395 414.415 501.457 414.673 501.582 414.903C501.71 415.131 501.884 415.312 502.102 415.449C502.324 415.582 502.577 415.649 502.861 415.649C503.074 415.649 503.271 415.609 503.453 415.53C503.635 415.45 503.793 415.341 503.926 415.202C504.063 415.06 504.169 414.896 504.246 414.712C504.322 414.527 504.361 414.331 504.361 414.124C504.358 413.848 504.293 413.595 504.165 413.365C504.037 413.135 503.861 412.95 503.636 412.811C503.412 412.672 503.159 412.602 502.878 412.602Z" fill="black"/>
<path d="M453.504 397.273V406H451.659V399.024H451.608L449.609 400.277V398.641L451.77 397.273H453.504ZM459 406.192C458.267 406.189 457.637 406.009 457.108 405.651C456.583 405.293 456.178 404.774 455.894 404.095C455.613 403.416 455.473 402.599 455.476 401.645C455.476 400.693 455.617 399.882 455.898 399.212C456.182 398.541 456.587 398.031 457.113 397.682C457.641 397.33 458.27 397.153 459 397.153C459.73 397.153 460.358 397.33 460.884 397.682C461.412 398.034 461.819 398.545 462.103 399.216C462.387 399.884 462.527 400.693 462.525 401.645C462.525 402.602 462.382 403.42 462.098 404.099C461.817 404.778 461.414 405.297 460.888 405.655C460.363 406.013 459.733 406.192 459 406.192ZM459 404.662C459.5 404.662 459.9 404.411 460.198 403.908C460.496 403.405 460.644 402.651 460.641 401.645C460.641 400.983 460.573 400.432 460.436 399.991C460.303 399.551 460.113 399.22 459.865 398.999C459.621 398.777 459.333 398.666 459 398.666C458.503 398.666 458.105 398.915 457.807 399.412C457.509 399.909 457.358 400.653 457.355 401.645C457.355 402.315 457.422 402.875 457.556 403.324C457.692 403.77 457.884 404.105 458.131 404.33C458.378 404.551 458.668 404.662 459 404.662Z" fill="black"/>
<path d="M493.707 376V374.67L496.814 371.794C497.078 371.538 497.3 371.308 497.479 371.104C497.661 370.899 497.798 370.699 497.892 370.503C497.986 370.304 498.033 370.089 498.033 369.859C498.033 369.604 497.974 369.384 497.858 369.199C497.741 369.011 497.582 368.868 497.381 368.768C497.179 368.666 496.95 368.615 496.695 368.615C496.428 368.615 496.195 368.669 495.996 368.777C495.797 368.885 495.643 369.04 495.536 369.241C495.428 369.443 495.374 369.683 495.374 369.962H493.622C493.622 369.391 493.751 368.895 494.01 368.474C494.268 368.054 494.631 367.729 495.097 367.499C495.563 367.268 496.099 367.153 496.707 367.153C497.332 367.153 497.876 367.264 498.339 367.486C498.805 367.705 499.168 368.009 499.426 368.398C499.685 368.787 499.814 369.233 499.814 369.736C499.814 370.065 499.749 370.391 499.618 370.712C499.49 371.033 499.261 371.389 498.932 371.781C498.602 372.17 498.138 372.638 497.538 373.183L496.264 374.432V374.491H499.929V376H493.707ZM504.492 376.119C503.855 376.119 503.289 376.01 502.792 375.791C502.297 375.57 501.907 375.266 501.62 374.879C501.336 374.49 501.189 374.041 501.181 373.533H503.039C503.05 373.746 503.12 373.933 503.248 374.095C503.378 374.254 503.551 374.378 503.767 374.466C503.983 374.554 504.226 374.598 504.496 374.598C504.777 374.598 505.026 374.548 505.242 374.449C505.458 374.349 505.627 374.212 505.749 374.036C505.871 373.859 505.932 373.656 505.932 373.426C505.932 373.193 505.867 372.987 505.736 372.808C505.608 372.626 505.424 372.484 505.182 372.382C504.944 372.28 504.659 372.229 504.33 372.229H503.516V370.874H504.33C504.608 370.874 504.854 370.825 505.067 370.729C505.283 370.632 505.451 370.499 505.57 370.328C505.689 370.155 505.749 369.953 505.749 369.723C505.749 369.504 505.696 369.312 505.591 369.148C505.489 368.98 505.344 368.849 505.157 368.756C504.972 368.662 504.756 368.615 504.509 368.615C504.259 368.615 504.03 368.661 503.823 368.751C503.615 368.839 503.449 368.966 503.324 369.131C503.199 369.295 503.132 369.489 503.124 369.71H501.355C501.364 369.207 501.507 368.764 501.786 368.381C502.064 367.997 502.439 367.697 502.911 367.482C503.385 367.263 503.921 367.153 504.517 367.153C505.12 367.153 505.647 367.263 506.098 367.482C506.55 367.7 506.901 367.996 507.151 368.368C507.404 368.737 507.529 369.152 507.526 369.612C507.529 370.101 507.377 370.509 507.07 370.835C506.766 371.162 506.37 371.369 505.881 371.457V371.526C506.523 371.608 507.012 371.831 507.347 372.195C507.685 372.555 507.853 373.007 507.85 373.55C507.853 374.047 507.709 374.489 507.419 374.875C507.132 375.261 506.736 375.565 506.23 375.787C505.725 376.009 505.145 376.119 504.492 376.119Z" fill="black"/>
<path d="M584.707 445V443.67L587.814 440.794C588.078 440.538 588.3 440.308 588.479 440.104C588.661 439.899 588.798 439.699 588.892 439.503C588.986 439.304 589.033 439.089 589.033 438.859C589.033 438.604 588.974 438.384 588.858 438.199C588.741 438.011 588.582 437.868 588.381 437.768C588.179 437.666 587.95 437.615 587.695 437.615C587.428 437.615 587.195 437.669 586.996 437.777C586.797 437.885 586.643 438.04 586.536 438.241C586.428 438.443 586.374 438.683 586.374 438.962H584.622C584.622 438.391 584.751 437.895 585.01 437.474C585.268 437.054 585.631 436.729 586.097 436.499C586.563 436.268 587.099 436.153 587.707 436.153C588.332 436.153 588.876 436.264 589.339 436.486C589.805 436.705 590.168 437.009 590.426 437.398C590.685 437.787 590.814 438.233 590.814 438.736C590.814 439.065 590.749 439.391 590.618 439.712C590.49 440.033 590.261 440.389 589.932 440.781C589.602 441.17 589.138 441.638 588.538 442.183L587.264 443.432V443.491H590.929V445H584.707ZM591.946 443.466V442.013L595.59 436.273H596.843V438.284H596.101L593.804 441.919V441.987H598.982V443.466H591.946ZM596.135 445V443.023L596.169 442.379V436.273H597.9V445H596.135Z" fill="black"/>
<path d="M336.504 456.273V465H334.659V458.024H334.608L332.609 459.277V457.641L334.77 456.273H336.504ZM341.766 465.119C341.164 465.119 340.627 465.009 340.155 464.787C339.686 464.565 339.314 464.26 339.039 463.871C338.763 463.482 338.62 463.036 338.608 462.533H340.398C340.418 462.871 340.56 463.145 340.824 463.355C341.088 463.565 341.402 463.67 341.766 463.67C342.056 463.67 342.311 463.607 342.533 463.479C342.757 463.348 342.932 463.168 343.057 462.938C343.185 462.705 343.249 462.437 343.249 462.136C343.249 461.83 343.184 461.56 343.053 461.327C342.925 461.094 342.748 460.912 342.52 460.781C342.293 460.651 342.033 460.584 341.74 460.581C341.485 460.581 341.236 460.634 340.995 460.739C340.756 460.844 340.57 460.987 340.436 461.169L338.796 460.875L339.209 456.273H344.544V457.781H340.73L340.505 459.967H340.556C340.709 459.751 340.941 459.572 341.25 459.43C341.56 459.288 341.907 459.217 342.29 459.217C342.816 459.217 343.284 459.341 343.696 459.588C344.108 459.835 344.434 460.175 344.672 460.607C344.911 461.036 345.029 461.53 345.026 462.089C345.029 462.678 344.892 463.2 344.617 463.658C344.344 464.112 343.962 464.47 343.471 464.732C342.982 464.99 342.414 465.119 341.766 465.119Z" fill="black"/>
<path d="M402.504 437.273V446H400.659V439.024H400.608L398.609 440.277V438.641L400.77 437.273H402.504ZM407.804 446.119C407.168 446.119 406.601 446.01 406.104 445.791C405.61 445.57 405.219 445.266 404.932 444.879C404.648 444.49 404.502 444.041 404.493 443.533H406.351C406.363 443.746 406.432 443.933 406.56 444.095C406.691 444.254 406.864 444.378 407.08 444.466C407.296 444.554 407.539 444.598 407.809 444.598C408.09 444.598 408.338 444.548 408.554 444.449C408.77 444.349 408.939 444.212 409.061 444.036C409.184 443.859 409.245 443.656 409.245 443.426C409.245 443.193 409.179 442.987 409.049 442.808C408.921 442.626 408.736 442.484 408.495 442.382C408.256 442.28 407.972 442.229 407.642 442.229H406.828V440.874H407.642C407.921 440.874 408.167 440.825 408.38 440.729C408.596 440.632 408.763 440.499 408.882 440.328C409.002 440.155 409.061 439.953 409.061 439.723C409.061 439.504 409.009 439.312 408.904 439.148C408.801 438.98 408.657 438.849 408.469 438.756C408.284 438.662 408.069 438.615 407.821 438.615C407.571 438.615 407.343 438.661 407.135 438.751C406.928 438.839 406.762 438.966 406.637 439.131C406.512 439.295 406.445 439.489 406.436 439.71H404.668C404.676 439.207 404.82 438.764 405.098 438.381C405.377 437.997 405.752 437.697 406.223 437.482C406.698 437.263 407.233 437.153 407.83 437.153C408.432 437.153 408.959 437.263 409.411 437.482C409.863 437.7 410.213 437.996 410.463 438.368C410.716 438.737 410.841 439.152 410.838 439.612C410.841 440.101 410.689 440.509 410.382 440.835C410.078 441.162 409.682 441.369 409.194 441.457V441.526C409.836 441.608 410.324 441.831 410.659 442.195C410.998 442.555 411.165 443.007 411.162 443.55C411.165 444.047 411.022 444.489 410.732 444.875C410.445 445.261 410.049 445.565 409.543 445.787C409.037 446.009 408.458 446.119 407.804 446.119Z" fill="black"/>
<path d="M351.504 396.273V405H349.659V398.024H349.608L347.609 399.277V397.641L349.77 396.273H351.504ZM353.578 405V403.67L356.685 400.794C356.949 400.538 357.171 400.308 357.35 400.104C357.532 399.899 357.669 399.699 357.763 399.503C357.857 399.304 357.904 399.089 357.904 398.859C357.904 398.604 357.846 398.384 357.729 398.199C357.613 398.011 357.453 397.868 357.252 397.768C357.05 397.666 356.821 397.615 356.566 397.615C356.299 397.615 356.066 397.669 355.867 397.777C355.668 397.885 355.515 398.04 355.407 398.241C355.299 398.443 355.245 398.683 355.245 398.962H353.493C353.493 398.391 353.623 397.895 353.881 397.474C354.14 397.054 354.502 396.729 354.968 396.499C355.434 396.268 355.971 396.153 356.578 396.153C357.203 396.153 357.748 396.264 358.211 396.486C358.676 396.705 359.039 397.009 359.297 397.398C359.556 397.787 359.685 398.233 359.685 398.736C359.685 399.065 359.62 399.391 359.489 399.712C359.361 400.033 359.132 400.389 358.803 400.781C358.473 401.17 358.009 401.638 357.409 402.183L356.135 403.432V403.491H359.8V405H353.578Z" fill="black"/>
<path d="M405.504 392.273V401H403.659V394.024H403.608L401.609 395.277V393.641L403.77 392.273H405.504ZM411.375 392.273V401H409.53V394.024H409.479L407.48 395.277V393.641L409.641 392.273H411.375Z" fill="black"/>
<path d="M498.504 484.273V493H496.659V486.024H496.608L494.609 487.277V485.641L496.77 484.273H498.504ZM500.446 491.466V490.013L504.09 484.273H505.343V486.284H504.601L502.304 489.919V489.987H507.482V491.466H500.446ZM504.635 493V491.023L504.669 490.379V484.273H506.4V493H504.635Z" fill="black"/>
<path d="M250.504 435.273V444H248.659V437.024H248.608L246.609 438.277V436.641L248.77 435.273H250.504ZM255.928 444.119C255.479 444.116 255.046 444.041 254.628 443.893C254.213 443.746 253.841 443.506 253.512 443.173C253.182 442.841 252.921 442.401 252.728 441.852C252.537 441.304 252.442 440.631 252.442 439.832C252.445 439.099 252.529 438.445 252.694 437.868C252.861 437.288 253.1 436.797 253.409 436.393C253.722 435.99 254.096 435.683 254.53 435.473C254.965 435.26 255.452 435.153 255.992 435.153C256.574 435.153 257.088 435.267 257.534 435.494C257.98 435.719 258.338 436.024 258.608 436.411C258.881 436.797 259.046 437.23 259.103 437.71H257.283C257.212 437.406 257.063 437.168 256.836 436.994C256.608 436.821 256.327 436.734 255.992 436.734C255.424 436.734 254.992 436.982 254.696 437.476C254.404 437.97 254.255 438.642 254.249 439.491H254.309C254.439 439.233 254.615 439.013 254.837 438.831C255.061 438.646 255.316 438.506 255.6 438.409C255.887 438.31 256.189 438.26 256.507 438.26C257.025 438.26 257.485 438.382 257.888 438.626C258.292 438.868 258.61 439.2 258.843 439.624C259.076 440.047 259.192 440.531 259.192 441.077C259.192 441.668 259.054 442.193 258.779 442.653C258.506 443.114 258.124 443.474 257.632 443.736C257.144 443.994 256.576 444.122 255.928 444.119ZM255.919 442.67C256.203 442.67 256.458 442.602 256.682 442.466C256.907 442.33 257.083 442.145 257.211 441.912C257.338 441.679 257.402 441.418 257.402 441.128C257.402 440.838 257.338 440.578 257.211 440.348C257.086 440.118 256.912 439.935 256.691 439.798C256.469 439.662 256.216 439.594 255.932 439.594C255.719 439.594 255.522 439.634 255.34 439.713C255.161 439.793 255.003 439.903 254.867 440.045C254.733 440.187 254.628 440.352 254.551 440.54C254.475 440.724 254.436 440.922 254.436 441.132C254.436 441.413 254.5 441.67 254.628 441.903C254.759 442.136 254.935 442.322 255.157 442.462C255.381 442.601 255.635 442.67 255.919 442.67Z" fill="black"/>
<path d="M228.504 381.273V390H226.659V383.024H226.608L224.609 384.277V382.641L226.77 381.273H228.504ZM230.924 390L234.542 382.841V382.781H230.327V381.273H236.451V382.803L232.828 390H230.924Z" fill="black"/>
<path d="M188.504 358.273V367H186.659V360.024H186.608L184.609 361.277V359.641L186.77 358.273H188.504ZM193.834 367.119C193.178 367.119 192.594 367.013 192.083 366.8C191.574 366.584 191.175 366.29 190.885 365.918C190.596 365.545 190.451 365.124 190.451 364.652C190.451 364.288 190.533 363.955 190.698 363.651C190.865 363.344 191.093 363.089 191.38 362.888C191.667 362.683 191.988 362.553 192.343 362.496V362.436C191.877 362.342 191.499 362.116 191.209 361.759C190.919 361.398 190.775 360.979 190.775 360.501C190.775 360.05 190.907 359.648 191.171 359.295C191.435 358.94 191.797 358.662 192.257 358.46C192.721 358.256 193.246 358.153 193.834 358.153C194.422 358.153 194.946 358.256 195.407 358.46C195.87 358.665 196.233 358.945 196.498 359.3C196.762 359.652 196.895 360.053 196.898 360.501C196.895 360.982 196.748 361.401 196.455 361.759C196.162 362.116 195.787 362.342 195.33 362.436V362.496C195.679 362.553 195.996 362.683 196.28 362.888C196.567 363.089 196.794 363.344 196.962 363.651C197.132 363.955 197.219 364.288 197.222 364.652C197.219 365.124 197.073 365.545 196.783 365.918C196.493 366.29 196.093 366.584 195.581 366.8C195.073 367.013 194.49 367.119 193.834 367.119ZM193.834 365.764C194.127 365.764 194.382 365.712 194.601 365.607C194.82 365.499 194.99 365.351 195.113 365.163C195.238 364.973 195.3 364.754 195.3 364.507C195.3 364.254 195.236 364.031 195.108 363.838C194.98 363.642 194.807 363.489 194.588 363.378C194.37 363.264 194.118 363.207 193.834 363.207C193.553 363.207 193.301 363.264 193.08 363.378C192.858 363.489 192.684 363.642 192.556 363.838C192.431 364.031 192.368 364.254 192.368 364.507C192.368 364.754 192.429 364.973 192.551 365.163C192.674 365.351 192.846 365.499 193.067 365.607C193.289 365.712 193.544 365.764 193.834 365.764ZM193.834 361.865C194.078 361.865 194.296 361.815 194.486 361.716C194.676 361.616 194.826 361.479 194.934 361.303C195.042 361.126 195.096 360.923 195.096 360.693C195.096 360.466 195.042 360.267 194.934 360.097C194.826 359.923 194.678 359.788 194.49 359.692C194.303 359.592 194.084 359.543 193.834 359.543C193.587 359.543 193.368 359.592 193.178 359.692C192.988 359.788 192.838 359.923 192.73 360.097C192.625 360.267 192.573 360.466 192.573 360.693C192.573 360.923 192.627 361.126 192.735 361.303C192.843 361.479 192.992 361.616 193.182 361.716C193.373 361.815 193.59 361.865 193.834 361.865Z" fill="black"/>
<path d="M107.504 331.273V340H105.659V333.024H105.608L103.609 334.277V332.641L105.77 331.273H107.504ZM112.736 331.153C113.185 331.153 113.617 331.229 114.032 331.379C114.449 331.53 114.821 331.77 115.148 332.099C115.478 332.429 115.738 332.866 115.928 333.412C116.121 333.955 116.219 334.621 116.222 335.411C116.222 336.152 116.138 336.814 115.971 337.396C115.806 337.976 115.569 338.469 115.259 338.875C114.949 339.281 114.576 339.591 114.138 339.804C113.701 340.014 113.212 340.119 112.672 340.119C112.09 340.119 111.576 340.007 111.13 339.783C110.684 339.555 110.324 339.247 110.051 338.858C109.782 338.466 109.618 338.026 109.561 337.537H111.381C111.452 337.855 111.601 338.102 111.828 338.278C112.056 338.452 112.337 338.538 112.672 338.538C113.24 338.538 113.672 338.291 113.968 337.797C114.263 337.3 114.412 336.619 114.415 335.756H114.355C114.225 336.011 114.049 336.232 113.827 336.416C113.605 336.598 113.351 336.739 113.064 336.838C112.78 336.938 112.478 336.987 112.157 336.987C111.642 336.987 111.184 336.866 110.78 336.625C110.377 336.384 110.059 336.051 109.826 335.628C109.593 335.205 109.476 334.722 109.476 334.179C109.473 333.594 109.608 333.072 109.881 332.615C110.154 332.158 110.534 331.8 111.023 331.541C111.515 331.28 112.086 331.151 112.736 331.153ZM112.749 332.602C112.462 332.602 112.206 332.67 111.982 332.807C111.76 332.943 111.584 333.126 111.453 333.357C111.326 333.587 111.263 333.844 111.266 334.128C111.266 334.415 111.328 334.673 111.453 334.903C111.581 335.131 111.755 335.312 111.973 335.449C112.195 335.582 112.448 335.649 112.732 335.649C112.945 335.649 113.142 335.609 113.324 335.53C113.506 335.45 113.664 335.341 113.797 335.202C113.934 335.06 114.04 334.896 114.117 334.712C114.194 334.527 114.232 334.331 114.232 334.124C114.229 333.848 114.164 333.595 114.036 333.365C113.908 333.135 113.732 332.95 113.507 332.811C113.283 332.672 113.03 332.602 112.749 332.602Z" fill="black"/>
<path d="M281.707 390V388.67L284.814 385.794C285.078 385.538 285.3 385.308 285.479 385.104C285.661 384.899 285.798 384.699 285.892 384.503C285.986 384.304 286.033 384.089 286.033 383.859C286.033 383.604 285.974 383.384 285.858 383.199C285.741 383.011 285.582 382.868 285.381 382.768C285.179 382.666 284.95 382.615 284.695 382.615C284.428 382.615 284.195 382.669 283.996 382.777C283.797 382.885 283.643 383.04 283.536 383.241C283.428 383.443 283.374 383.683 283.374 383.962H281.622C281.622 383.391 281.751 382.895 282.01 382.474C282.268 382.054 282.631 381.729 283.097 381.499C283.563 381.268 284.099 381.153 284.707 381.153C285.332 381.153 285.876 381.264 286.339 381.486C286.805 381.705 287.168 382.009 287.426 382.398C287.685 382.787 287.814 383.233 287.814 383.736C287.814 384.065 287.749 384.391 287.618 384.712C287.49 385.033 287.261 385.389 286.932 385.781C286.602 386.17 286.138 386.638 285.538 387.183L284.264 388.432V388.491H287.929V390H281.707ZM292.688 390.192C291.955 390.189 291.324 390.009 290.796 389.651C290.27 389.293 289.865 388.774 289.581 388.095C289.3 387.416 289.161 386.599 289.164 385.645C289.164 384.693 289.304 383.882 289.586 383.212C289.87 382.541 290.275 382.031 290.8 381.682C291.328 381.33 291.958 381.153 292.688 381.153C293.418 381.153 294.046 381.33 294.571 381.682C295.1 382.034 295.506 382.545 295.79 383.216C296.074 383.884 296.215 384.693 296.212 385.645C296.212 386.602 296.07 387.42 295.786 388.099C295.505 388.778 295.101 389.297 294.576 389.655C294.05 390.013 293.421 390.192 292.688 390.192ZM292.688 388.662C293.188 388.662 293.587 388.411 293.885 387.908C294.184 387.405 294.331 386.651 294.328 385.645C294.328 384.983 294.26 384.432 294.124 383.991C293.99 383.551 293.8 383.22 293.553 382.999C293.309 382.777 293.02 382.666 292.688 382.666C292.191 382.666 291.793 382.915 291.495 383.412C291.196 383.909 291.046 384.653 291.043 385.645C291.043 386.315 291.11 386.875 291.243 387.324C291.38 387.77 291.571 388.105 291.819 388.33C292.066 388.551 292.355 388.662 292.688 388.662Z" fill="black"/>
<path d="M382.707 346V344.67L385.814 341.794C386.078 341.538 386.3 341.308 386.479 341.104C386.661 340.899 386.798 340.699 386.892 340.503C386.986 340.304 387.033 340.089 387.033 339.859C387.033 339.604 386.974 339.384 386.858 339.199C386.741 339.011 386.582 338.868 386.381 338.768C386.179 338.666 385.95 338.615 385.695 338.615C385.428 338.615 385.195 338.669 384.996 338.777C384.797 338.885 384.643 339.04 384.536 339.241C384.428 339.443 384.374 339.683 384.374 339.962H382.622C382.622 339.391 382.751 338.895 383.01 338.474C383.268 338.054 383.631 337.729 384.097 337.499C384.563 337.268 385.099 337.153 385.707 337.153C386.332 337.153 386.876 337.264 387.339 337.486C387.805 337.705 388.168 338.009 388.426 338.398C388.685 338.787 388.814 339.233 388.814 339.736C388.814 340.065 388.749 340.391 388.618 340.712C388.49 341.033 388.261 341.389 387.932 341.781C387.602 342.17 387.138 342.638 386.538 343.183L385.264 344.432V344.491H388.929V346H382.707ZM394.063 337.273V346H392.218V339.024H392.167L390.168 340.277V338.641L392.328 337.273H394.063Z" fill="black"/>
<path d="M261.707 330V328.67L264.814 325.794C265.078 325.538 265.3 325.308 265.479 325.104C265.661 324.899 265.798 324.699 265.892 324.503C265.986 324.304 266.033 324.089 266.033 323.859C266.033 323.604 265.974 323.384 265.858 323.199C265.741 323.011 265.582 322.868 265.381 322.768C265.179 322.666 264.95 322.615 264.695 322.615C264.428 322.615 264.195 322.669 263.996 322.777C263.797 322.885 263.643 323.04 263.536 323.241C263.428 323.443 263.374 323.683 263.374 323.962H261.622C261.622 323.391 261.751 322.895 262.01 322.474C262.268 322.054 262.631 321.729 263.097 321.499C263.563 321.268 264.099 321.153 264.707 321.153C265.332 321.153 265.876 321.264 266.339 321.486C266.805 321.705 267.168 322.009 267.426 322.398C267.685 322.787 267.814 323.233 267.814 323.736C267.814 324.065 267.749 324.391 267.618 324.712C267.49 325.033 267.261 325.389 266.932 325.781C266.602 326.17 266.138 326.638 265.538 327.183L264.264 328.432V328.491H267.929V330H261.707ZM269.266 330V328.67L272.373 325.794C272.637 325.538 272.858 325.308 273.037 325.104C273.219 324.899 273.357 324.699 273.451 324.503C273.544 324.304 273.591 324.089 273.591 323.859C273.591 323.604 273.533 323.384 273.417 323.199C273.3 323.011 273.141 322.868 272.939 322.768C272.738 322.666 272.509 322.615 272.253 322.615C271.986 322.615 271.753 322.669 271.554 322.777C271.355 322.885 271.202 323.04 271.094 323.241C270.986 323.443 270.932 323.683 270.932 323.962H269.181C269.181 323.391 269.31 322.895 269.569 322.474C269.827 322.054 270.189 321.729 270.655 321.499C271.121 321.268 271.658 321.153 272.266 321.153C272.891 321.153 273.435 321.264 273.898 321.486C274.364 321.705 274.726 322.009 274.985 322.398C275.243 322.787 275.373 323.233 275.373 323.736C275.373 324.065 275.307 324.391 275.176 324.712C275.049 325.033 274.82 325.389 274.49 325.781C274.161 326.17 273.696 326.638 273.097 327.183L271.823 328.432V328.491H275.488V330H269.266Z" fill="black"/>
</svg>
